# Blender v2.72 (sub 0) OBJ File: ''
# www.blender.org
mtllib tape.mtl
o Tape
v 0.200000 0.049999 0.000000
v 0.173204 -0.050000 -0.099999
v 0.173204 0.049999 -0.099999
v 0.200000 -0.050000 0.000000
v -0.200000 -0.050000 0.000000
v -0.173204 0.049999 -0.099999
v -0.173204 -0.050000 -0.099999
v -0.200000 0.049999 0.000000
v 0.110000 -0.050000 0.000000
v 0.173204 -0.050000 0.099999
v 0.095262 -0.050000 0.054999
v 0.099999 -0.050000 0.173204
v 0.054999 -0.050000 0.095262
v 0.000000 -0.050000 0.200000
v 0.000000 -0.050000 0.110000
v -0.054999 -0.050000 0.095262
v -0.099999 -0.050000 0.173204
v -0.095262 -0.050000 0.054999
v -0.173204 -0.050000 0.099999
v -0.110000 -0.050000 0.000000
v 0.095262 -0.050000 -0.054999
v 0.099999 -0.050000 -0.173204
v 0.054999 -0.050000 -0.095262
v 0.000000 -0.050000 -0.110000
v 0.000000 -0.050000 -0.200000
v -0.054999 -0.050000 -0.095262
v -0.099999 -0.050000 -0.173204
v -0.095262 -0.050000 -0.054999
v 0.000000 0.049999 -0.200000
v 0.099999 0.049999 -0.173204
v -0.099999 0.049999 -0.173204
v 0.099999 0.049999 0.173204
v 0.000000 0.049999 0.200000
v -0.099999 0.049999 0.173204
v -0.173204 0.049999 0.099999
v 0.110000 0.049999 0.000000
v 0.173204 0.049999 0.099999
v 0.095262 0.049999 -0.054999
v 0.054999 0.049999 -0.095262
v 0.000000 0.049999 -0.110000
v -0.054999 0.049999 -0.095262
v -0.095262 0.049999 -0.054999
v -0.110000 0.049999 0.000000
v 0.095262 0.049999 0.054999
v 0.054999 0.049999 0.095262
v 0.000000 0.049999 0.110000
v -0.054999 0.049999 0.095262
v -0.095262 0.049999 0.054999
v 0.095262 -0.052500 -0.054999
v 0.110000 -0.052500 0.000000
v 0.110000 0.052500 0.000000
v 0.095262 0.052500 -0.054999
v -0.110000 -0.052500 0.000000
v -0.095262 -0.052500 -0.054999
v -0.095262 0.052500 -0.054999
v -0.110000 0.052500 0.000000
v 0.095262 -0.052500 0.054999
v 0.099999 -0.052500 0.000000
v 0.086602 -0.052500 0.049999
v 0.054999 -0.052500 0.095262
v 0.049999 -0.052500 0.086602
v 0.000000 -0.052500 0.110000
v 0.000000 -0.052500 0.099999
v -0.049999 -0.052500 0.086602
v -0.054999 -0.052500 0.095262
v -0.086602 -0.052500 0.049999
v -0.095262 -0.052500 0.054999
v -0.099999 -0.052500 0.000000
v 0.086602 -0.052500 -0.049999
v 0.054999 -0.052500 -0.095262
v 0.049999 -0.052500 -0.086602
v 0.000000 -0.052500 -0.099999
v 0.000000 -0.052500 -0.110000
v -0.049999 -0.052500 -0.086602
v -0.054999 -0.052500 -0.095262
v -0.086602 -0.052500 -0.049999
v 0.000000 0.052500 -0.110000
v 0.054999 0.052500 -0.095262
v -0.054999 0.052500 -0.095262
v 0.000000 0.052500 0.110000
v -0.054999 0.052500 0.095262
v -0.095262 0.052500 0.054999
v 0.099999 0.052500 0.000000
v 0.086602 0.052500 -0.049999
v 0.049999 0.052500 -0.086602
v 0.000000 0.052500 -0.099999
v -0.049999 0.052500 -0.086602
v -0.086602 0.052500 -0.049999
v -0.099999 0.052500 0.000000
v 0.095262 0.052500 0.054999
v 0.086602 0.052500 0.049999
v 0.054999 0.052500 0.095262
v 0.049999 0.052500 0.086602
v 0.000000 0.052500 0.099999
v -0.049999 0.052500 0.086602
v -0.086602 0.052500 0.049999
vt 0.833232 0.622578
vt 0.749924 0.703047
vt 0.749924 0.622578
vt 0.833232 0.703047
vt 0.333384 0.703047
vt 0.416692 0.622578
vt 0.416692 0.703047
vt 0.333384 0.622578
vt 0.223119 0.113856
vt 0.274329 0.062646
vt 0.315983 0.134793
vt 0.202182 0.020993
vt 0.246028 0.153537
vt 0.315983 0.218101
vt 0.246028 0.199357
vt 0.274329 0.290248
vt 0.223119 0.239038
vt 0.183438 0.261947
vt 0.202182 0.331902
vt 0.137618 0.261947
vt 0.118874 0.331902
vt 0.097937 0.239038
vt 0.183438 0.090947
vt 0.118874 0.020993
vt 0.137618 0.090947
vt 0.097937 0.113856
vt 0.046727 0.062646
vt 0.075028 0.153537
vt 0.005074 0.134793
vt 0.075028 0.199357
vt 0.005074 0.218101
vt 0.046727 0.290248
vt 0.666616 0.703047
vt 0.583308 0.622578
vt 0.666616 0.622578
vt 0.583308 0.703047
vt 0.500000 0.622578
vt 0.500000 0.703047
vt 0.083460 0.703047
vt 0.000152 0.622578
vt 0.083460 0.622578
vt 0.000152 0.703047
vt 0.166768 0.703047
vt 0.166768 0.622578
vt 0.250076 0.703047
vt 0.250076 0.622578
vt 0.223119 0.239729
vt 0.274329 0.290940
vt 0.202182 0.332593
vt 0.315983 0.218792
vt 0.183438 0.262638
vt 0.118874 0.332593
vt 0.137618 0.262638
vt 0.046727 0.290940
vt 0.097937 0.239729
vt 0.075028 0.200048
vt 0.005074 0.218792
vt 0.075028 0.154228
vt 0.005074 0.135484
vt 0.097937 0.114548
vt 0.246028 0.200048
vt 0.315983 0.135484
vt 0.246028 0.154228
vt 0.223119 0.114548
vt 0.274329 0.063337
vt 0.183438 0.091638
vt 0.202182 0.021684
vt 0.137618 0.091638
vt 0.118874 0.021684
vt 0.046727 0.063337
vt 0.999848 0.622578
vt 0.916540 0.703047
vt 0.916540 0.622578
vt 0.999848 0.703047
vt 0.918448 0.599950
vt 0.964265 0.597939
vt 0.964265 0.599950
vt 0.918448 0.597938
vt 0.918226 0.599895
vt 0.964045 0.597882
vt 0.964045 0.599895
vt 0.918226 0.597882
vt 0.643535 0.597938
vt 0.597717 0.599949
vt 0.597717 0.597938
vt 0.643535 0.599950
vt 0.643311 0.597882
vt 0.597492 0.599895
vt 0.597492 0.597882
vt 0.643311 0.599895
vt 0.905053 0.120280
vt 0.897280 0.076544
vt 0.905053 0.074461
vt 0.897280 0.118197
vt 0.882143 0.159961
vt 0.876453 0.154271
vt 0.842463 0.182871
vt 0.840380 0.175098
vt 0.798727 0.175099
vt 0.796644 0.182871
vt 0.762653 0.154271
vt 0.756963 0.159962
vt 0.741826 0.118199
vt 0.734052 0.120282
vt 0.882143 0.034780
vt 0.876453 0.040471
vt 0.842461 0.011871
vt 0.840379 0.019644
vt 0.798725 0.019644
vt 0.796642 0.011871
vt 0.762652 0.040471
vt 0.756962 0.034781
vt 0.741825 0.076545
vt 0.734052 0.074462
vt 0.460261 0.597938
vt 0.506078 0.599949
vt 0.460261 0.599950
vt 0.506078 0.597938
vt 0.460035 0.597882
vt 0.505853 0.599895
vt 0.460035 0.599895
vt 0.505853 0.597882
vt 0.414439 0.599950
vt 0.414439 0.597939
vt 0.414214 0.599895
vt 0.414214 0.597882
vt 0.551895 0.599949
vt 0.551895 0.597938
vt 0.551672 0.599895
vt 0.551672 0.597882
vt 0.734950 0.597883
vt 0.780768 0.599895
vt 0.734950 0.599895
vt 0.780768 0.597882
vt 0.735174 0.597938
vt 0.780991 0.599950
vt 0.735174 0.599950
vt 0.780991 0.597938
vt 0.689352 0.597938
vt 0.689352 0.599950
vt 0.689130 0.597882
vt 0.689130 0.599895
vt 0.882484 0.160465
vt 0.897621 0.118702
vt 0.905394 0.120785
vt 0.876794 0.154775
vt 0.842803 0.183375
vt 0.840720 0.175602
vt 0.796984 0.183375
vt 0.799067 0.175601
vt 0.762994 0.154774
vt 0.757303 0.160464
vt 0.742167 0.118700
vt 0.734394 0.120783
vt 0.742167 0.077047
vt 0.734394 0.074964
vt 0.905394 0.074965
vt 0.897622 0.077048
vt 0.882485 0.035284
vt 0.876795 0.040974
vt 0.840722 0.020147
vt 0.842805 0.012374
vt 0.799068 0.020147
vt 0.796985 0.012374
vt 0.762994 0.040974
vt 0.757304 0.035284
vt 0.872407 0.599895
vt 0.872407 0.597882
vt 0.872630 0.599950
vt 0.872630 0.597938
vt 0.826809 0.599950
vt 0.826809 0.597938
vt 0.826587 0.599895
vt 0.826587 0.597882
vt 0.698592 0.186298
vt 0.614099 0.144645
vt 0.698592 0.144645
vt 0.614099 0.186298
vt 0.614099 0.436222
vt 0.698592 0.477875
vt 0.614099 0.477875
vt 0.698592 0.436222
vt 0.698592 0.061337
vt 0.614099 0.102990
vt 0.614099 0.061337
vt 0.698592 0.102990
vt 0.698592 0.019683
vt 0.614099 0.019683
vt 0.698592 0.311260
vt 0.614099 0.352914
vt 0.614099 0.311260
vt 0.698592 0.352914
vt 0.698592 0.269607
vt 0.614099 0.269607
vt 0.614099 0.394568
vt 0.698592 0.394568
vt 0.698592 0.519530
vt 0.614099 0.519530
vt 0.698592 0.227952
vt 0.614099 0.227952
vn 0.757100 0.653200 0.000000
vn 0.655700 -0.653200 -0.378600
vn 0.655700 0.653200 -0.378600
vn 0.757100 -0.653200 0.000000
vn -0.757100 -0.653200 0.000000
vn -0.655700 0.653200 -0.378600
vn -0.655700 -0.653200 -0.378600
vn -0.757100 0.653200 0.000000
vn 0.637700 -0.770300 0.000000
vn 0.655700 -0.653200 0.378600
vn 0.552300 -0.770300 0.318900
vn 0.378600 -0.653200 0.655700
vn 0.318900 -0.770300 0.552300
vn 0.000000 -0.653200 0.757100
vn 0.000000 -0.770300 0.637700
vn -0.318900 -0.770300 0.552300
vn -0.378600 -0.653200 0.655700
vn -0.552300 -0.770300 0.318900
vn -0.655700 -0.653200 0.378600
vn -0.637700 -0.770300 0.000000
vn 0.552300 -0.770300 -0.318900
vn 0.378600 -0.653200 -0.655700
vn 0.318900 -0.770300 -0.552300
vn 0.000000 -0.770300 -0.637700
vn 0.000000 -0.653200 -0.757100
vn -0.318900 -0.770300 -0.552300
vn -0.378600 -0.653200 -0.655700
vn -0.552300 -0.770300 -0.318900
vn 0.000000 0.653200 -0.757100
vn 0.378600 0.653200 -0.655700
vn -0.378600 0.653200 -0.655700
vn 0.378600 0.653200 0.655700
vn 0.000000 0.653200 0.757100
vn -0.378600 0.653200 0.655700
vn -0.655700 0.653200 0.378600
vn 0.637700 0.770300 0.000000
vn 0.655700 0.653200 0.378600
vn 0.552300 0.770300 -0.318900
vn 0.318900 0.770300 -0.552300
vn 0.000000 0.770300 -0.637700
vn -0.318900 0.770300 -0.552300
vn -0.552300 0.770300 -0.318900
vn -0.637700 0.770300 0.000000
vn 0.552300 0.770300 0.318900
vn 0.318900 0.770300 0.552300
vn 0.000000 0.770300 0.637700
vn -0.318900 0.770300 0.552300
vn -0.552300 0.770300 0.318900
usemtl Material.001
s 1
f 1/1/1 2/2/2 3/3/3
f 2/2/2 1/1/1 4/4/4
f 5/5/5 6/6/6 7/7/7
f 6/6/6 5/5/5 8/8/8
f 9/9/9 4/10/4 10/11/10
f 4/10/4 9/9/9 2/12/2
f 11/13/11 10/11/10 12/14/12
f 10/11/10 11/13/11 9/9/9
f 12/14/12 13/15/13 11/13/11
f 14/16/14 13/15/13 12/14/12
f 14/16/14 15/17/15 13/15/13
f 14/16/14 16/18/16 15/17/15
f 17/19/17 16/18/16 14/16/14
f 16/18/16 17/19/17 18/20/18
f 19/21/19 18/20/18 17/19/17
f 18/20/18 19/21/19 20/22/20
f 21/23/21 2/12/2 9/9/9
f 2/12/2 21/23/21 22/24/22
f 23/25/23 22/24/22 21/23/21
f 24/26/24 22/24/22 23/25/23
f 24/26/24 25/27/25 22/24/22
f 26/28/26 25/27/25 24/26/24
f 27/29/27 26/28/26 28/30/28
f 26/28/26 27/29/27 25/27/25
f 7/31/7 28/30/28 20/22/20
f 5/32/5 20/22/20 19/21/19
f 28/30/28 7/31/7 27/29/27
f 20/22/20 5/32/5 7/31/7
f 22/33/22 29/34/29 30/35/30
f 29/34/29 22/33/22 25/36/25
f 3/3/3 22/33/22 30/35/30
f 22/33/22 3/3/3 2/2/2
f 25/36/25 31/37/31 29/34/29
f 31/37/31 25/36/25 27/38/27
f 14/39/14 32/40/32 33/41/33
f 32/40/32 14/39/14 12/42/12
f 17/43/17 33/41/33 34/44/34
f 33/41/33 17/43/17 14/39/14
f 19/45/19 8/8/8 5/5/5
f 8/8/8 19/45/19 35/46/35
f 17/43/17 35/46/35 19/45/19
f 35/46/35 17/43/17 34/44/34
f 36/47/36 1/48/1 3/49/3
f 1/48/1 36/47/36 37/50/37
f 38/51/38 3/49/3 30/52/30
f 3/49/3 38/51/38 36/47/36
f 30/52/30 39/53/39 38/51/38
f 29/54/29 39/53/39 30/52/30
f 29/54/29 40/55/40 39/53/39
f 29/54/29 41/56/41 40/55/40
f 31/57/31 41/56/41 29/54/29
f 41/56/41 31/57/31 42/58/42
f 6/59/6 42/58/42 31/57/31
f 42/58/42 6/59/6 43/60/43
f 44/61/44 37/50/37 36/47/36
f 37/50/37 44/61/44 32/62/32
f 45/63/45 32/62/32 44/61/44
f 46/64/46 32/62/32 45/63/45
f 46/64/46 33/65/33 32/62/32
f 47/66/47 33/65/33 46/64/46
f 34/67/34 47/66/47 48/68/48
f 47/66/47 34/67/34 33/65/33
f 35/69/35 48/68/48 43/60/43
f 8/70/8 43/60/43 6/59/6
f 48/68/48 35/69/35 34/67/34
f 43/60/43 8/70/8 35/69/35
f 7/7/7 31/37/31 27/38/27
f 31/37/31 7/7/7 6/6/6
f 32/71/32 10/72/10 37/73/37
f 10/72/10 32/71/32 12/74/12
f 37/73/37 4/4/4 1/1/1
f 4/4/4 37/73/37 10/72/10
f 9/75/9 49/76/2 21/77/21
f 49/76/2 9/75/9 50/78/4
f 51/79/1 38/80/38 52/81/3
f 38/80/38 51/79/1 36/82/36
f 53/83/5 28/84/28 54/85/7
f 28/84/28 53/83/5 20/86/20
f 43/87/43 55/88/6 42/89/42
f 55/88/6 43/87/43 56/90/8
f 57/91/10 58/92/20 50/93/4
f 57/91/10 59/94/28 58/92/20
f 60/95/12 59/94/28 57/91/10
f 60/95/12 61/96/26 59/94/28
f 62/97/14 61/96/26 60/95/12
f 62/97/14 63/98/24 61/96/26
f 62/97/14 64/99/23 63/98/24
f 65/100/17 64/99/23 62/97/14
f 65/100/17 66/101/21 64/99/23
f 67/102/19 66/101/21 65/100/17
f 67/102/19 68/103/9 66/101/21
f 68/103/9 67/102/19 53/104/5
f 58/92/20 49/105/2 50/93/4
f 69/106/18 49/105/2 58/92/20
f 69/106/18 70/107/22 49/105/2
f 71/108/16 70/107/22 69/106/18
f 72/109/15 70/107/22 71/108/16
f 72/109/15 73/110/25 70/107/22
f 74/111/13 73/110/25 72/109/15
f 74/111/13 75/112/27 73/110/25
f 76/113/11 75/112/27 74/111/13
f 76/113/11 54/114/7 75/112/27
f 68/103/9 54/114/7 76/113/11
f 54/114/7 68/103/9 53/104/5
f 70/115/22 24/116/24 23/117/23
f 24/116/24 70/115/22 73/118/25
f 39/119/39 77/120/29 78/121/30
f 77/120/29 39/119/39 40/122/40
f 21/123/21 70/115/22 23/117/23
f 70/115/22 21/123/21 49/124/2
f 52/125/3 39/119/39 78/121/30
f 39/119/39 52/125/3 38/126/38
f 73/118/25 26/127/26 24/116/24
f 26/127/26 73/118/25 75/128/27
f 40/122/40 79/129/31 77/120/29
f 79/129/31 40/122/40 41/130/41
f 47/131/47 80/132/33 81/133/34
f 80/132/33 47/131/47 46/134/46
f 65/135/17 15/136/15 16/137/16
f 15/136/15 65/135/17 62/138/14
f 67/139/19 20/86/20 53/83/5
f 20/86/20 67/139/19 18/140/18
f 48/141/48 56/90/8 43/87/43
f 56/90/8 48/141/48 82/142/35
f 54/85/7 26/127/26 75/128/27
f 26/127/26 54/85/7 28/84/28
f 42/89/42 79/129/31 41/130/41
f 79/129/31 42/89/42 55/88/6
f 52/143/3 83/144/43 51/145/1
f 52/143/3 84/146/48 83/144/43
f 78/147/30 84/146/48 52/143/3
f 78/147/30 85/148/47 84/146/48
f 77/149/29 85/148/47 78/147/30
f 77/149/29 86/150/46 85/148/47
f 77/149/29 87/151/45 86/150/46
f 79/152/31 87/151/45 77/149/29
f 79/152/31 88/153/44 87/151/45
f 55/154/6 88/153/44 79/152/31
f 55/154/6 89/155/36 88/153/44
f 89/155/36 55/154/6 56/156/8
f 83/144/43 90/157/37 51/145/1
f 91/158/42 90/157/37 83/144/43
f 91/158/42 92/159/32 90/157/37
f 93/160/41 92/159/32 91/158/42
f 94/161/40 92/159/32 93/160/41
f 94/161/40 80/162/33 92/159/32
f 95/163/39 80/162/33 94/161/40
f 95/163/39 81/164/34 80/162/33
f 96/165/38 81/164/34 95/163/39
f 96/165/38 82/166/35 81/164/34
f 89/155/36 82/166/35 96/165/38
f 82/166/35 89/155/36 56/156/8
f 90/167/37 36/82/36 51/79/1
f 36/82/36 90/167/37 44/168/44
f 11/169/11 50/78/4 9/75/9
f 50/78/4 11/169/11 57/170/10
f 65/135/17 18/140/18 67/139/19
f 18/140/18 65/135/17 16/137/16
f 47/131/47 82/142/35 48/141/48
f 82/142/35 47/131/47 81/133/34
f 13/171/13 57/170/10 11/169/11
f 57/170/10 13/171/13 60/172/12
f 92/173/32 44/168/44 90/167/37
f 44/168/44 92/173/32 45/174/45
f 46/134/46 92/173/32 80/132/33
f 92/173/32 46/134/46 45/174/45
f 62/138/14 13/171/13 15/136/15
f 13/171/13 62/138/14 60/172/12
f 58/175/20 84/176/48 69/177/18
f 84/176/48 58/175/20 83/178/43
f 89/179/36 76/180/11 88/181/44
f 76/180/11 89/179/36 68/182/9
f 72/183/15 85/184/47 86/185/46
f 85/184/47 72/183/15 71/186/16
f 69/177/18 85/184/47 71/186/16
f 85/184/47 69/177/18 84/176/48
f 74/187/13 86/185/46 87/188/45
f 86/185/46 74/187/13 72/183/15
f 63/189/24 95/190/39 94/191/40
f 95/190/39 63/189/24 64/192/23
f 61/193/26 94/191/40 93/194/41
f 94/191/40 61/193/26 63/189/24
f 96/195/38 68/182/9 89/179/36
f 68/182/9 96/195/38 66/196/21
f 88/181/44 74/197/13 87/198/45
f 74/197/13 88/181/44 76/180/11
f 59/199/28 83/178/43 58/175/20
f 83/178/43 59/199/28 91/200/42
f 95/190/39 66/196/21 96/195/38
f 66/196/21 95/190/39 64/192/23
f 61/193/26 91/200/42 59/199/28
f 91/200/42 61/193/26 93/194/41
